<svg xmlns="http://www.w3.org/2000/svg" viewBox="0 0 24 24"><title>ceiling-lamp</title><path d="M12 19.5c-1.799 0-3.323-1.268-3.673-3H4.54c-.04 0-.072-.001-.104-.003-.398-.025-.763-.203-1.026-.502-.264-.299-.396-.683-.371-1.082.313-3.222 2.301-6.007 5.212-7.339V6.75c0-.209.018-.42.052-.626.258-1.527 1.447-2.738 2.947-3.046V.75c0-.414.336-.75.75-.75s.75.336.75.75v2.329c1.79.418 3.04 2.016 3 3.849v.647c2.911 1.332 4.898 4.111 5.209 7.313.004.064.005.1.005.137-.011.813-.688 1.474-1.509 1.475h-3.782c-.35 1.732-1.874 3-3.673 3zm-2.118-3c.313.879 1.158 1.5 2.118 1.5s1.805-.621 2.118-1.5H9.882zM19.46 15l.003-.004c-.283-2.811-2.095-5.195-4.736-6.226-.29-.114-.477-.388-.477-.699v-1.16c.025-1.16-.773-2.159-1.897-2.385-.111-.019-.235-.029-.359-.029-.464 0-.913.145-1.297.418-.49.348-.815.866-.915 1.459-.021.124-.032.25-.032.376v1.321c0 .311-.187.585-.477.699C6.635 9.8 4.823 12.185 4.537 15H19.46zM12 24c-.414 0-.75-.336-.75-.75v-1.5c0-.414.336-.75.75-.75s.75.336.75.75v1.5c0 .414-.337.75-.75.75zM18.75 23.25c-.251 0-.485-.125-.624-.334l-1.5-2.25c-.111-.167-.151-.367-.112-.563.039-.196.153-.365.32-.477.123-.083.267-.126.416-.126.251 0 .485.125.624.334l1.5 2.25c.111.167.151.367.112.563-.039.196-.153.365-.32.477-.123.082-.267.126-.416.126zM5.25 23.25c-.149 0-.292-.044-.416-.126-.344-.229-.437-.696-.208-1.04l1.5-2.25c.139-.209.372-.334.624-.334.148 0 .292.044.416.126.344.229.437.696.208 1.04l-1.5 2.25c-.139.209-.373.334-.624.334z"/></svg>