<svg xmlns="http://www.w3.org/2000/svg" viewBox="0 0 24 24"><title>send-email</title><path d="M17.642 24c-.149 0-.299-.014-.447-.042-.595-.112-1.122-.44-1.485-.923l-1.501-2.004-2.587 1.763c-.402.274-.872.419-1.359.419-1.331 0-2.413-1.083-2.413-2.413v-4.42H2.759c-1.331 0-2.414-1.083-2.414-2.414 0-.838.424-1.603 1.135-2.047L19.963.365c.383-.24.825-.367 1.276-.367.839 0 1.605.423 2.049 1.132.323.517.439 1.131.325 1.73l-3.6 19.171C19.799 23.173 18.801 24 17.642 24zm-.732-1.865c.137.183.337.307.562.349.055.01.112.015.168.015.44 0 .818-.313.899-.745l3.6-19.172c.017-.088.021-.177.012-.265L12.039 15.632l4.871 6.503zm-7.56-1.334c0 .503.41.913.913.913.184 0 .362-.055.515-.159l2.53-1.725-2.583-3.451H9.35v4.422zM20.758 1.637L2.275 13.191c-.269.168-.429.458-.429.775 0 .504.41.914.914.914h7.968L20.805 1.609l-.047.028z"/></svg>